<?xml version="1.0" encoding="utf-8"?>
<!-- Generator: Adobe Illustrator 17.0.1, SVG Export Plug-In . SVG Version: 6.00 Build 0)  -->
<!DOCTYPE svg PUBLIC "-//W3C//DTD SVG 1.1//EN" "http://www.w3.org/Graphics/SVG/1.1/DTD/svg11.dtd">
<svg version="1.1" id="Capa_1" xmlns="http://www.w3.org/2000/svg" xmlns:xlink="http://www.w3.org/1999/xlink" x="0px" y="0px"
	 width="32px" height="22.382px" viewBox="239.999 244.808 32 22.382" enable-background="new 239.999 244.808 32 22.382"
	 xml:space="preserve">
<g>
	<g>
		<path d="M271.494,249.616c0.279,0,0.505-0.226,0.505-0.505v-1.966c0-1.289-1.048-2.337-2.337-2.337h-27.326
			c-1.289,0-2.337,1.048-2.337,2.337v17.708c0,1.289,1.048,2.337,2.337,2.337h27.326c1.289,0,2.337-1.048,2.337-2.337v-14.102
			c0-0.279-0.226-0.505-0.505-0.505s-0.505,0.226-0.505,0.505v14.102c0,0.732-0.595,1.327-1.327,1.327h-27.326
			c-0.731,0-1.327-0.595-1.327-1.327v-17.708c0-0.731,0.595-1.327,1.327-1.327h27.326c0.731,0,1.327,0.595,1.327,1.327v1.966
			C270.988,249.39,271.215,249.616,271.494,249.616z"/>
	</g>
</g>
<g>
	<g>
		<path d="M251.661,254.126h-1.027v1.13h1.027v0c0.407,0,0.689-0.145,0.689-0.552C252.35,254.271,252.047,254.126,251.661,254.126z"
			/>
	</g>
</g>
<g>
	<g>
		<path d="M251.626,252.355h-0.993v0.944h0.993c0.221,0,0.524-0.117,0.524-0.469C252.15,252.472,251.895,252.355,251.626,252.355z"
			/>
	</g>
</g>
<g>
	<g>
		<polygon points="256.32,252.727 256.306,252.727 255.748,254.451 256.865,254.451 		"/>
	</g>
</g>
<g>
	<g>
		<path d="M248.102,258.018h-0.702v0.764h0.74c0.266,0,0.408-0.142,0.408-0.399C248.548,258.132,248.348,258.018,248.102,258.018z"
			/>
	</g>
</g>
<g>
	<g>
		<polygon points="251.315,258.25 251.306,258.25 250.922,259.437 251.691,259.437 		"/>
	</g>
</g>
<g>
	<g>
		<path d="M267.708,258.018h-0.702v0.764h0.741c0.266,0,0.408-0.142,0.408-0.399C268.155,258.132,267.955,258.018,267.708,258.018z"
			/>
	</g>
</g>
<g>
	<g>
		<path d="M270.036,260.229c-0.009-0.062-0.017-0.16-0.024-0.291c-0.002-0.028-0.003-0.052-0.004-0.071
			c0-0.007-0.001-0.013-0.002-0.02c-0.024-0.276-0.08-0.508-0.156-0.703c0.128-0.264,0.198-0.564,0.198-0.88
			c0-0.464-0.146-0.872-0.403-1.194c0.105-0.085,0.195-0.192,0.26-0.316c0.175-0.332,0.151-0.733-0.061-1.043l-1.587-2.314
			l1.255-1.336c0.175-0.182,0.282-0.428,0.282-0.7c0-0.558-0.452-1.011-1.01-1.011h0h-1.592c-0.295,0-0.575,0.129-0.767,0.353
			l-0.044,0.052c-0.184-0.246-0.478-0.404-0.809-0.404h-1.282c-0.157,0-0.305,0.037-0.438,0.101
			c-0.133-0.064-0.281-0.101-0.438-0.101h-1.207c-0.364,0-0.684,0.193-0.862,0.482c-0.183-0.299-0.509-0.482-0.862-0.482h-1.317
			c-0.558,0-1.01,0.452-1.01,1.011v0.292l-0.242-0.646c-0.148-0.395-0.525-0.657-0.947-0.657h-1.303
			c-0.422,0-0.799,0.262-0.947,0.657l-0.358,0.958c-0.144-0.529-0.476-0.958-0.971-1.24c-0.438-0.249-0.997-0.375-1.663-0.375h0
			c-0.027,0-0.053,0-0.08,0.001h-2.295c-0.139,0-0.271,0.028-0.392,0.079c-0.121-0.051-0.254-0.079-0.393-0.079h-5.345
			c-0.558,0-1.01,0.452-1.01,1.011v1.07c0,0.153,0.035,0.298,0.096,0.428c-0.061,0.13-0.096,0.275-0.096,0.428v1.07
			c0,0.153,0.035,0.298,0.096,0.428c-0.061,0.13-0.096,0.275-0.096,0.428v1.07c0,0.188,0.052,0.363,0.141,0.513
			c-0.089,0.151-0.141,0.326-0.141,0.513v0.76c0,0.558,0.452,1.01,1.01,1.01h0.001v1.62c0,0.558,0.453,1.01,1.011,1.01h0.883
			c0.272,0,0.519-0.108,0.7-0.283c0.182,0.175,0.428,0.283,0.7,0.283h0.883c0.239,0,0.458-0.083,0.631-0.221
			c0.177,0.142,0.399,0.221,0.631,0.221h0.874c0.013,0,0.025-0.001,0.038-0.001c0.008,0,0.015,0.001,0.023,0.001h0.907
			c0.32,0,0.614-0.151,0.802-0.396c0.188,0.245,0.482,0.396,0.802,0.396h0.921c0.042,0,0.084-0.003,0.126-0.008
			c0.04,0.005,0.08,0.008,0.121,0.008h0.831c0.222,0,0.427-0.072,0.593-0.193c0.17,0.123,0.376,0.193,0.593,0.193h0.907
			c0.226,0,0.433-0.075,0.601-0.2c0.363,0.175,0.795,0.271,1.279,0.271c0.487,0,0.929-0.091,1.299-0.263
			c0.166,0.12,0.37,0.191,0.59,0.191h0.883c0.547,0,0.991-0.434,1.009-0.977c0.018,0.542,0.462,0.977,1.009,0.977h2.749
			c0.087,0,0.171-0.012,0.252-0.033c0.081,0.021,0.164,0.033,0.252,0.033h0.883c0.239,0,0.458-0.083,0.631-0.221
			c0.177,0.142,0.399,0.221,0.631,0.221h0.874c0.405,0,0.771-0.242,0.93-0.615C270.193,260.812,270.176,260.494,270.036,260.229z
			 M243.221,252.277v-0.916h5.119h0.225v1.07h-5.345V252.277z M243.221,254.203v-0.761v-0.155h5.345v1.07h-5.345V254.203z
			 M243.221,255.368v-0.155h5.345v1.07h-0.225h-5.119V255.368z M246.127,258.07h-0.621h-0.39v2.63h-0.883v-2.63h-1.011v-0.76h2.284
			h0.621V258.07z M248.662,260.7L248.662,260.7L248.662,260.7c-0.026-0.039-0.044-0.103-0.058-0.175c0,0,0,0,0-0.001
			c-0.023-0.122-0.033-0.265-0.039-0.34c-0.001-0.01-0.002-0.019-0.002-0.026c-0.024-0.342-0.081-0.693-0.494-0.693h-0.669v1.234
			h-0.883v-1.697v-1.692h0.621h1.107c0.037,0,0.075,0.001,0.112,0.003c0.025,0.001,0.05,0.004,0.075,0.007
			c0.012,0.001,0.024,0.002,0.036,0.003c0.03,0.004,0.06,0.008,0.09,0.014c0.006,0.001,0.012,0.002,0.018,0.003
			c0.467,0.086,0.856,0.369,0.856,0.925c0,0.252-0.083,0.494-0.251,0.666l0,0c-0.001,0-0.001,0.001-0.001,0.001
			c-0.017,0.017-0.035,0.034-0.054,0.049c-0.006,0.005-0.012,0.01-0.019,0.015c-0.014,0.011-0.028,0.022-0.043,0.032
			c-0.007,0.005-0.015,0.01-0.023,0.015c-0.015,0.01-0.031,0.019-0.047,0.027c-0.007,0.004-0.014,0.008-0.022,0.012
			c-0.024,0.012-0.048,0.023-0.073,0.033v0.009c0.02,0.005,0.039,0.011,0.058,0.018c0.006,0.002,0.012,0.005,0.018,0.007
			c0.013,0.005,0.025,0.011,0.037,0.017c0.006,0.003,0.012,0.006,0.018,0.009c0.014,0.008,0.027,0.016,0.04,0.024
			c0.003,0.002,0.006,0.003,0.008,0.005l0,0c0.219,0.155,0.292,0.47,0.315,0.732c0.009,0.142,0.024,0.641,0.142,0.764H248.662
			L248.662,260.7z M252.266,260.7h-0.158l-0.209-0.608h-1.182l-0.178,0.507l-0.036,0.101h-0.907l1.267-3.39h0.897l1.268,3.39
			H252.266z M252.835,256.087C252.835,256.087,252.835,256.087,252.835,256.087c-0.078,0.035-0.161,0.064-0.247,0.089
			c-0.001,0-0.003,0.001-0.004,0.001c-0.085,0.024-0.173,0.044-0.264,0.059c-0.003,0.001-0.006,0.001-0.01,0.002
			c-0.044,0.007-0.09,0.014-0.135,0.019c-0.004,0.001-0.009,0.001-0.013,0.001c-0.043,0.005-0.086,0.009-0.13,0.013
			c-0.004,0-0.009,0.001-0.013,0.001c-0.045,0.003-0.09,0.006-0.135,0.007c-0.009,0-0.019,0.001-0.028,0.001
			c-0.046,0.001-0.092,0.002-0.139,0.002h-2.139h-0.225v-4.922h0.225h2.077c0.024,0,0.048-0.001,0.072-0.001
			c0.001,0,0.003,0,0.004,0c0.011,0,0.022,0,0.033,0c0.015,0,0.031,0,0.046,0.001c0.011,0,0.022,0.001,0.034,0.001
			c0.015,0.001,0.03,0.001,0.045,0.001c0.012,0,0.023,0.001,0.035,0.002c0.015,0.001,0.03,0.001,0.044,0.002
			c0.012,0.001,0.023,0.002,0.035,0.002c0.015,0.001,0.029,0.002,0.044,0.003c0.012,0.001,0.023,0.002,0.035,0.003
			c0.014,0.001,0.029,0.003,0.043,0.004c0.012,0.001,0.023,0.003,0.035,0.004c0.014,0.002,0.028,0.003,0.043,0.005
			c0.012,0.002,0.023,0.003,0.035,0.005c0.014,0.002,0.028,0.004,0.042,0.006c0.012,0.002,0.023,0.004,0.035,0.006
			c0.014,0.002,0.027,0.005,0.041,0.008c0.012,0.002,0.023,0.005,0.034,0.007c0.014,0.003,0.027,0.006,0.041,0.009
			c0.011,0.003,0.023,0.005,0.034,0.008c0.013,0.003,0.027,0.007,0.04,0.01c0.011,0.003,0.022,0.006,0.033,0.009
			c0.013,0.004,0.026,0.007,0.039,0.011c0.011,0.003,0.022,0.007,0.033,0.01c0.013,0.004,0.025,0.008,0.038,0.013
			c0.011,0.004,0.021,0.008,0.032,0.012c0.012,0.005,0.025,0.009,0.037,0.014c0.01,0.004,0.021,0.009,0.031,0.013
			c0.012,0.005,0.024,0.01,0.036,0.016c0.01,0.005,0.02,0.009,0.03,0.014c0.012,0.006,0.023,0.011,0.035,0.017
			c0.01,0.005,0.019,0.01,0.029,0.015c0.011,0.006,0.022,0.013,0.033,0.019c0.009,0.005,0.019,0.011,0.028,0.017
			c0.011,0.007,0.021,0.014,0.032,0.021c0.009,0.006,0.018,0.012,0.027,0.018c0.01,0.007,0.02,0.015,0.03,0.022
			c0.008,0.007,0.017,0.013,0.025,0.02c0.01,0.008,0.019,0.016,0.029,0.024c0.008,0.007,0.016,0.014,0.024,0.021
			c0.009,0.008,0.018,0.017,0.027,0.026c0.008,0.008,0.015,0.015,0.022,0.023c0.009,0.009,0.017,0.019,0.025,0.028
			c0.007,0.008,0.014,0.016,0.021,0.024c0.008,0.01,0.016,0.02,0.023,0.03c0.006,0.009,0.013,0.017,0.019,0.026
			c0.007,0.01,0.014,0.021,0.021,0.032c0.006,0.009,0.012,0.018,0.017,0.027c0.007,0.011,0.013,0.023,0.019,0.034
			c0.005,0.01,0.011,0.019,0.016,0.029c0.006,0.012,0.011,0.024,0.017,0.037c0.005,0.01,0.009,0.02,0.014,0.03
			c0.005,0.013,0.01,0.026,0.015,0.039c0.004,0.011,0.008,0.021,0.012,0.032c0.005,0.014,0.008,0.028,0.013,0.042
			c0.003,0.011,0.007,0.022,0.01,0.033c0.004,0.015,0.007,0.03,0.01,0.046c0.002,0.011,0.005,0.022,0.007,0.034
			c0.003,0.016,0.005,0.033,0.008,0.05c0.002,0.011,0.004,0.022,0.005,0.034c0.002,0.019,0.004,0.039,0.005,0.059
			c0.001,0.01,0.002,0.019,0.003,0.029c0.002,0.03,0.003,0.061,0.003,0.093c0,0.441-0.262,0.8-0.648,0.993
			c0.039,0.011,0.076,0.025,0.113,0.039c0.011,0.004,0.021,0.009,0.031,0.013c0.027,0.012,0.053,0.024,0.078,0.037
			c0.01,0.005,0.019,0.01,0.029,0.015c0.032,0.018,0.063,0.036,0.092,0.057c0.001,0.001,0.002,0.001,0.004,0.002
			c0.033,0.023,0.065,0.047,0.095,0.073c0.003,0.002,0.005,0.004,0.007,0.007c0.027,0.024,0.053,0.049,0.078,0.075
			c0.003,0.003,0.006,0.006,0.009,0.01c0.081,0.088,0.148,0.189,0.199,0.3c0,0,0,0,0,0c0.073,0.161,0.113,0.342,0.113,0.537
			C253.632,255.462,253.317,255.873,252.835,256.087z M256.201,260.7H255.9h-0.606l-1.178-2.113h-0.01v2.113h-0.067h-0.763v-2.225
			v-1.165h0.907l1.177,2.089h0.01v-2.089h0.582h0.249V260.7z M255.451,255.402l-0.31,0.882h-0.967h-0.349l1.841-4.922h1.303
			l1.188,3.177l0.652,1.745H257.5h-0.029l-0.303-0.882H255.451z M258.654,260.708c-0.001,0-0.002,0.001-0.003,0.001
			c-0.035,0.008-0.071,0.016-0.107,0.023c-0.001,0-0.003,0.001-0.004,0.001c-0.071,0.013-0.143,0.022-0.216,0.029
			c-0.005,0-0.01,0.001-0.015,0.001c-0.034,0.003-0.069,0.005-0.103,0.006c-0.006,0-0.012,0-0.017,0.001
			c-0.035,0.001-0.071,0.002-0.106,0.002c-0.036,0-0.071-0.001-0.106-0.002c-0.007,0-0.014-0.001-0.021-0.001
			c-0.034-0.002-0.068-0.004-0.102-0.007c-0.006-0.001-0.011-0.001-0.017-0.002c-0.033-0.003-0.066-0.007-0.099-0.012
			c-0.002,0-0.004-0.001-0.006-0.001c-0.034-0.005-0.068-0.011-0.101-0.018c-0.006-0.001-0.011-0.002-0.017-0.003
			c-0.033-0.007-0.066-0.015-0.098-0.023c-0.003-0.001-0.005-0.002-0.008-0.002c-0.032-0.009-0.063-0.018-0.094-0.029
			c-0.002-0.001-0.005-0.001-0.007-0.002c-0.031-0.011-0.062-0.022-0.092-0.035c-0.004-0.002-0.008-0.004-0.013-0.005
			c-0.03-0.013-0.06-0.027-0.089-0.041c0,0,0,0,0,0c-0.358-0.184-0.599-0.513-0.602-1.026h0.602h0.281
			c0.019,0.399,0.266,0.527,0.641,0.527c0.266,0,0.541-0.095,0.541-0.347c0-0.299-0.484-0.356-0.973-0.494
			c-0.038-0.011-0.077-0.022-0.115-0.035c-0.007-0.002-0.015-0.005-0.022-0.007c-0.122-0.039-0.242-0.086-0.352-0.145c0,0,0,0,0,0
			c-0.285-0.152-0.503-0.385-0.503-0.792c0-0.432,0.253-0.71,0.591-0.867c0.003-0.002,0.007-0.003,0.01-0.005
			c0.029-0.013,0.059-0.025,0.089-0.037c0.004-0.002,0.008-0.003,0.013-0.005c0.03-0.011,0.061-0.022,0.092-0.031
			c0.003-0.001,0.007-0.002,0.01-0.003c0.187-0.056,0.387-0.082,0.577-0.082c0.158,0,0.315,0.018,0.465,0.055h0
			c0.49,0.122,0.889,0.451,0.893,1.036h-0.488h-0.395c0.014-0.309-0.275-0.408-0.546-0.408c-0.19,0-0.427,0.066-0.427,0.29
			c0,0.261,0.489,0.309,0.983,0.446c0.033,0.009,0.065,0.019,0.098,0.029c0.002,0.001,0.004,0.001,0.006,0.002
			c0.453,0.141,0.88,0.378,0.88,0.947C259.557,260.269,259.16,260.585,258.654,260.708z M262.467,258.018h-0.607h-1.007v0.693h1.007
			l0,0h0.389v0.683h-0.389h-1.007v1.306h-0.558h-0.326v-3.39h0.221h1.669h0.607V258.018L262.467,258.018z M262.097,256.284
			L262.097,256.284l-1.71-3.068h-0.014v3.068h-0.554h-0.652v-1.928v-2.994h1.317l1.71,3.033h0.014v-3.033h1.071h0.136v4.922h-0.136
			H262.097z M265.62,260.7h-0.507h-2.241v-0.51v-2.879h0.607h1.634h0.46v0.707h-0.46h-1.359v0.593h1.359h0.303v0.684h-0.303h-1.359
			v0.646h1.359h0.507V260.7L265.62,260.7z M266.095,254.216l-0.524,0.552v1.516h-1.147h-0.136v-4.922h0.136h1.147v1.889l1.62-1.889
			h1.592l-1.82,1.937l2.048,2.985h-1.592L266.095,254.216z M268.269,260.7L268.269,260.7c-0.076-0.114-0.09-0.446-0.1-0.541
			c-0.024-0.342-0.081-0.693-0.494-0.693h-0.669v1.234h-0.376h-0.507v-3.39h0.46h1.268c0.598,0,1.187,0.271,1.187,0.954
			c0,0.366-0.175,0.712-0.532,0.85v0.009c0.361,0.086,0.465,0.489,0.494,0.812c0.01,0.142,0.024,0.641,0.143,0.764H268.269
			L268.269,260.7z"/>
	</g>
</g>
</svg>
