<svg id="icons" enable-background="new 0 0 64 64" height="512" viewBox="0 0 64 64" width="512" xmlns="http://www.w3.org/2000/svg"><path d="m41.687 46.773-2.999-2.999c-.391-.391-1.023-.391-1.414 0s-.391 1.023 0 1.414l1.293 1.293h-23.591v-11c0-.553-.447-1-1-1s-1 .447-1 1v12c0 .553.447 1 1 1h24.591l-1.293 1.293c-.391.391-.391 1.023 0 1.414.195.195.451.293.707.293s.512-.098.707-.293l2.999-2.999c.093-.092.166-.203.217-.326.102-.244.102-.52 0-.764-.051-.122-.125-.234-.217-.326z"/><path d="m53.986 22.481c.553 0 1-.447 1-1v-12c0-.553-.447-1-1-1h-18.593l1.293-1.293c.391-.391.391-1.023 0-1.414s-1.023-.391-1.414 0l-2.999 2.999c-.093.092-.167.204-.217.327-.102.244-.102.52 0 .764.051.123.124.234.217.326l2.999 2.999c.195.195.451.293.707.293s.512-.098.707-.293c.391-.391.391-1.023 0-1.414l-1.293-1.293h17.594v11c-.001.552.447.999.999.999z"/><path d="m54.003 34.503c-2.757 0-5 2.242-5 4.998 0 2.757 2.243 5 5 5s5-2.243 5-5c0-2.756-2.243-4.998-5-4.998zm0 7.998c-1.654 0-3-1.346-3-3 0-1.653 1.346-2.998 3-2.998s3 1.345 3 2.998c0 1.654-1.346 3-3 3z"/><path d="m64.002 25.497c0-.266-.105-.52-.293-.707s-.441-.293-.707-.293l-17.994.006c-.553 0-1 .448-1 1v2.979c0 .005-.003.01-.003.015s.003.01.003.015v21.971c0 .005-.003.01-.003.015s.003.01.003.015v2.932c-.001.02-.011.035-.011.054v3 3c0 .553.447 1 1 1h18c.553 0 1-.447 1-1v-3-2.976c0-.009.005-.016.005-.024v-2.993c0-.002.001-.003.001-.005s-.001-.003-.001-.005zm-17.994 1.006h.713c-.173.296-.417.54-.713.714zm0 25.274c.298.175.544.422.718.72h-.718zm15.989 6.72h-16v-1h16zm0-3h-16v-1h1.998c.004 0 .007.002.01.002s.006-.002.01-.002h13.982zm.005-3h-.718c.174-.298.42-.545.718-.719zm0-2.855c-1.396.364-2.49 1.458-2.854 2.855h-10.286c-.363-1.398-1.457-2.493-2.854-2.857v-20.286c1.395-.363 2.487-1.457 2.851-2.852l10.289-.004c.362 1.397 1.457 2.493 2.854 2.856zm0-22.423c-.299-.175-.545-.422-.719-.722h.719z"/><path d="m30.003 31.506v-23.003c0-.04-.019-.074-.022-.112-.008-.068-.019-.134-.04-.199-.022-.067-.054-.127-.089-.187-.02-.033-.025-.07-.049-.102l-3-4c-.014-.019-.035-.027-.05-.045-.047-.054-.1-.097-.157-.14-.049-.037-.095-.074-.149-.101-.056-.028-.114-.044-.175-.062-.066-.019-.132-.035-.201-.04-.023-.002-.043-.014-.067-.014h-22.004c-.023 0-.044.012-.067.014-.07.005-.136.021-.203.041-.06.018-.118.034-.171.061-.057.028-.104.066-.155.104-.055.042-.107.083-.152.135-.016.018-.037.027-.052.046l-3.003 4c-.024.032-.03.07-.05.104-.034.06-.065.118-.086.184-.022.065-.032.13-.04.198-.005.04-.024.074-.024.115v23.003c0 .553.447 1 1 1h28.006c.553 0 1-.447 1-1zm-4.499-26.003 1.5 2h-8.223l-.499-2zm-11.723 0h2.44l.499 2h-3.438zm-.779 4h3.998v2.003h-3.998zm-8.502-4h7.221l-.499 2h-8.224zm23.503 25.003h-26.006v-21.003h9.005v3.003c0 .553.447 1 1 1h5.998c.553 0 1-.447 1-1v-3.003h9.003z"/><path d="m13.002 23.505h-8.002c-.553 0-1 .447-1 1s.447 1 1 1h8.002c.553 0 1-.447 1-1s-.447-1-1-1z"/><path d="m9.001 26.505h-4.001c-.553 0-1 .447-1 1s.447 1 1 1h4.001c.553 0 1-.447 1-1s-.447-1-1-1z"/></svg>