<?xml version="1.0"?>
<svg xmlns="http://www.w3.org/2000/svg" viewBox="0 0 64 64" width="512" height="512"><g id="Buy"><rect x="56" y="4" width="4" height="10"/><path d="M37.929,8H14V22H42V12.414l-.95.95a3,3,0,1,1-4.242-4.242ZM22,16H20a1,1,0,0,1,0-2h2a1,1,0,0,1,0,2Zm6-2a2.993,2.993,0,0,1,1,5.816V21H27V19.816A3,3,0,0,1,25,17h2a1,1,0,1,0,1-1,2.993,2.993,0,0,1-1-5.816V9h2v1.184A3,3,0,0,1,31,13H29a1,1,0,1,0-1,1Zm8,0a1,1,0,0,1,0,2H34a1,1,0,0,1,0-2Z"/><path d="M51.316,8.949l-1.1.367a7.044,7.044,0,0,1-4.428,0l-.516-.172L44,10.414v2.879l.674.274a7.03,7.03,0,0,0,6.24-.482l1.571-.942A.993.993,0,0,1,52.994,12L54,11.993V5.618L50.975,4.105A1.019,1.019,0,0,0,50.528,4H35.872a1,1,0,0,0-.625.219L33.021,6h6.908l.765-.765a1,1,0,0,1,1.414,1.414l-3.886,3.887a1,1,0,0,0,0,1.414,1,1,0,0,0,1.414,0l2.657-2.657h0l2-2a1,1,0,0,1,1.023-.242l1.1.368a5.029,5.029,0,0,0,3.162,0l1.1-.368a1,1,0,0,1,.632,1.9Z"/><path d="M10,58.464l2.053,1.363A.977.977,0,0,0,12.61,60H27.46a.931.931,0,0,0,.485-.127L41.36,52.134a1.011,1.011,0,0,0,.5-.874.966.966,0,0,0-.135-.488.994.994,0,0,0-.611-.472.968.968,0,0,0-.746.1l-8.387,4.835A2.976,2.976,0,0,1,30,56H24a1,1,0,0,1,0-2h6a1,1,0,0,0,0-2H22a1,1,0,0,1-.554-.167l-.453-.3a8.976,8.976,0,0,0-9.985,0l-.454.3A1,1,0,0,1,10,52Z"/><rect x="4" y="50" width="4" height="10"/><path d="M16,30V46H40V30H31v5a1,1,0,0,1-1,1H26a1,1,0,0,1-1-1V30Zm6,15H18a1,1,0,0,1,0-2h4a1,1,0,0,1,0,2Zm0-3H18a1,1,0,0,1,0-2h4a1,1,0,0,1,0,2Zm4,3H25a1,1,0,0,1,0-2h1a1,1,0,0,1,0,2Zm0-5a1,1,0,0,1,0,2H25a1,1,0,0,1,0-2Z"/><rect x="27" y="30" width="2" height="4"/></g></svg>
