<?xml version="1.0" encoding="iso-8859-1"?>
<!-- Generator: Adobe Illustrator 19.0.0, SVG Export Plug-In . SVG Version: 6.00 Build 0)  -->
<svg version="1.1" id="Layer_1" xmlns="http://www.w3.org/2000/svg" xmlns:xlink="http://www.w3.org/1999/xlink" x="0px" y="0px"
	 viewBox="0 0 460 460" style="enable-background:new 0 0 460 460;" xml:space="preserve">
<g id="XMLID_1137_">
	<g>
		<g>
			<path d="M77.76,202.902c0,5.749,3.009,8.237,8.281,10.544v-21.63C80.521,193.566,77.76,197.262,77.76,202.902z"/>
			<path d="M104.426,241.469v22.281c7.206-1.297,10.812-4.871,10.812-10.724C115.237,246.63,110.565,244.021,104.426,241.469z"/>
			<path d="M432.75,113H27.25C12.2,113,0,125.2,0,140.25v179.5C0,334.8,12.2,347,27.25,347h405.5c15.05,0,27.25-12.2,27.25-27.25
				v-179.5C460,125.2,447.8,113,432.75,113z M192.834,152.55h115.724c8.284,0,15,6.716,15,15s-6.716,15-15,15H192.834
				c-8.284,0-15-6.716-15-15S184.55,152.55,192.834,152.55z M104.426,282.946v13.462c0,2.286-1.853,4.139-4.139,4.139H90.179
				c-2.286,0-4.139-1.853-4.139-4.139v-13.825c-11.479-1.543-22.415-5.582-31.48-11.256c-1.819-1.139-2.469-3.482-1.489-5.392
				l5.424-10.582c0.538-1.05,1.5-1.821,2.642-2.118c1.142-0.297,2.357-0.091,3.339,0.563c6.15,4.095,15.594,7.668,21.564,9.069
				v-27.192c-17.554-4.932-30.181-11.333-30.181-29.38c0-16.852,10.374-29.924,30.181-33.434v-13.269
				c0-2.286,1.853-4.139,4.139-4.139h10.108c2.286,0,4.139,1.853,4.139,4.139v12.907c9.348,1.25,18.568,4.748,26.303,9.436
				c1.89,1.145,2.548,3.575,1.491,5.516l-5.284,9.703c-0.542,0.996-1.469,1.725-2.564,2.018c-1.095,0.293-2.262,0.124-3.23-0.467
				c-4.121-2.516-10.798-5.509-16.716-6.893v27.139c18.346,5.119,33.483,10.923,33.483,31.916
				C137.908,270.813,124.602,280.865,104.426,282.946z M177.834,230c0-8.284,6.716-15,15-15h219.724c8.284,0,15,6.716,15,15
				s-6.716,15-15,15H192.834C184.55,245,177.834,238.284,177.834,230z M412.558,307.044h-79c-8.284,0-15-6.716-15-15s6.716-15,15-15
				h79c8.284,0,15,6.716,15,15S420.842,307.044,412.558,307.044z"/>
		</g>
	</g>
</g>
<g>
</g>
<g>
</g>
<g>
</g>
<g>
</g>
<g>
</g>
<g>
</g>
<g>
</g>
<g>
</g>
<g>
</g>
<g>
</g>
<g>
</g>
<g>
</g>
<g>
</g>
<g>
</g>
<g>
</g>
</svg>
