<svg xmlns="http://www.w3.org/2000/svg" viewBox="0 0 512 512"><path d="M506.093 157.769a20.037 20.037 0 0 0-14.262-5.907h-5.529a7.376 7.376 0 0 0-7.376 7.376 7.376 7.376 0 0 0 7.376 7.376h5.529a5.38 5.38 0 0 1 3.829 1.586 5.384 5.384 0 0 1 1.587 3.831v244.483a5.423 5.423 0 0 1-5.416 5.416H86.919V166.614h279.56a7.376 7.376 0 0 0 7.376-7.376 7.376 7.376 0 0 0-7.376-7.376H20.169C9.048 151.862 0 160.91 0 172.031v244.483c0 11.121 9.048 20.168 20.169 20.168h471.663c11.121 0 20.168-9.047 20.168-20.168V172.031a20.04 20.04 0 0 0-5.907-14.262zM72.167 421.93H20.169a5.421 5.421 0 0 1-5.416-5.416V172.031a5.422 5.422 0 0 1 5.416-5.416h51.998V421.93z"/><path d="M473.177 373.823h-147.84a7.376 7.376 0 0 0-7.376 7.376 7.376 7.376 0 0 0 7.376 7.376h147.84a7.376 7.376 0 0 0 7.376-7.376 7.376 7.376 0 0 0-7.376-7.376zM242.502 373.823H107.186a7.376 7.376 0 0 0-7.376 7.376 7.376 7.376 0 0 0 7.376 7.376h135.316a7.376 7.376 0 0 0 7.376-7.376 7.376 7.376 0 0 0-7.376-7.376zM490.509 93.473a13.532 13.532 0 0 0-5.742-8.702l-10.507-7.11a13.541 13.541 0 0 0-10.213-2.094 13.531 13.531 0 0 0-8.702 5.742l-12.96 19.152c-7.88-2.761-16.948-.03-21.843 7.204L277.888 318.48c-.036.053-.06.114-.095.168-.147.229-.28.466-.401.712-.045.091-.091.18-.132.272a7.342 7.342 0 0 0-.368 1.001l-.003.007-19.313 69.534a10.925 10.925 0 0 0 4.407 11.983 10.917 10.917 0 0 0 12.763-.363l57.368-43.784c.288-.22.551-.465.8-.721.069-.07.132-.144.198-.217a7.35 7.35 0 0 0 .522-.65c.035-.049.079-.091.113-.141l114.85-169.722.001-.002 4.179-6.176 9.361 6.335-59.978 88.635a7.377 7.377 0 0 0 12.219 8.268l60.727-89.743c4.145-6.127 2.534-14.483-3.593-18.628l-10.468-7.084 15.36-22.7c4.776-7.059 4.104-16.219-1.035-22.501l13.044-19.277a13.533 13.533 0 0 0 2.095-10.213zM274.834 383.17l13.526-48.698 26.651 18.035-40.177 30.663zm50.831-41.266l-31.425-21.265 106.58-157.506 31.425 21.265-106.58 157.506zM445.332 165.06l.031-.046-.031.046zm-4.818 7.12l-31.425-21.265 6.169-9.119 31.426 21.265-6.17 9.119zm23.672-34.983l-9.235 13.647-31.426-21.265 9.235-13.647a4.104 4.104 0 0 1 5.691-1.097l24.638 16.672a4.103 4.103 0 0 1 1.097 5.69zm-.589-23.159l-8.633-5.842 11.966-17.684 8.633 5.842-11.966 17.684z"/><path d="M473.177 325.252h-104.77a7.376 7.376 0 0 0-7.376 7.376 7.376 7.376 0 0 0 7.376 7.376h104.77a7.376 7.376 0 0 0 0-14.752zM252.927 325.253H107.186a7.376 7.376 0 0 0-7.376 7.376 7.376 7.376 0 0 0 7.376 7.376h145.741a7.377 7.377 0 0 0 0-14.752zM144.398 233.262v-28.294c9.757.697 13.381 5.157 16.726 5.157 4.182 0 6.133-5.297 6.133-7.945 0-6.829-13.38-9.756-22.858-10.035v-3.763c0-1.673-2.09-3.206-4.181-3.206-2.369 0-4.042 1.533-4.042 3.206v4.042c-13.241 1.394-26.482 8.363-26.482 25.925 0 17.841 13.938 22.859 26.482 27.319v32.754c-14.216-1.115-17.98-10.872-22.579-10.872-3.484 0-6.411 4.6-6.411 7.945 0 6.829 11.708 16.168 28.991 16.447h-.002v4.32c0 1.673 1.672 3.206 4.042 3.206 2.09 0 4.181-1.533 4.181-3.206v-4.739c15.053-2.09 25.367-11.568 25.367-28.712 0-18.956-13.241-25.089-25.367-29.549zm-7.384-2.648c-7.388-2.787-13.381-5.715-13.381-13.659 0-7.248 5.575-10.733 13.381-11.708v25.367zm6.551 47.529v-29.409c6.829 2.927 12.265 6.829 12.265 15.61 0 7.945-4.738 12.405-12.265 13.799z"/></svg>