<svg xmlns="http://www.w3.org/2000/svg" viewBox="0 -6 459 458"><path d="M118 342l18 18H11v16h125l-18 19 11 11 38-38-38-37zM38 227L0 264l38 38 11-11-18-19h124v-16H31l18-18zm339 210l5-2a133 133 0 0 0 29-19l5-4 1-1c-9-4-18-8-28-10-5 14-13 28-23 40a108 108 0 0 0 11-4zm51-210c-11 5-22 9-34 12 6 22 9 43 9 65h56c-2-28-12-55-31-77zm31 93h-56c0 22-3 44-9 66 12 3 23 7 34 12 19-22 29-49 31-78zM331 447c17-4 32-23 42-50-14-2-28-4-42-4zm0-143h56c0-20-3-41-9-61-15 3-31 5-47 5zm86-90l-1-1-5-4-6-5-5-3a136 136 0 0 0-18-11l-5-2a126 126 0 0 0-11-4c10 12 18 26 23 40 10-2 19-6 28-10zm-86-36v54c14 0 28-2 42-4-10-27-25-46-42-50zm-87 126c0-22 3-43 9-65-12-3-24-7-35-12-18 22-29 49-30 77zm87 73c16 0 32 2 47 5 6-20 9-41 9-62h-56zm-16-199c-16 4-31 23-41 50 13 2 27 4 41 4zm0 70c-15 0-31-2-46-5-6 20-9 41-9 61h55zm-62 138c-6-22-9-44-9-66h-56c1 29 12 56 30 78 11-5 23-9 35-12zm-18 30l6 5 5 3a143 143 0 0 0 34 17c-9-12-17-26-22-40-10 2-19 5-29 10l2 1 4 4zm46-232a97 97 0 0 0-11 3l-5 3a136 136 0 0 0-30 19l-4 4-2 1c10 4 19 8 29 10 5-15 13-28 23-40zm34 263v-54c-14 0-28 2-41 4 10 27 25 46 41 50zm0-127h-55c0 21 3 42 9 62 15-3 31-5 46-5zM59 152a8 8 0 1 1-16 0 8 8 0 0 1 16 0zm0 0"/><path d="M11 184c0 5 4 8 8 8h211c25-19 54-30 85-31V80H11zm40-56c8 0 16 5 20 11a24 24 0 1 1 0 27 24 24 0 1 1-20-38zm0 0"/><path d="M99 152a8 8 0 1 1-16 0 8 8 0 0 1 16 0zM11 48h304v16H11zM307 0H19c-4 0-8 4-8 8v24h304V8c0-4-3-8-8-8zm0 0"/><path d="M91 144a8 8 0 1 1 0 16 8 8 0 0 1 0-16zm-40 0a8 8 0 1 1 0 16 8 8 0 0 1 0-16zm0 0"/></svg>