<svg height="512pt" viewBox="0 0 512 512" width="512pt" xmlns="http://www.w3.org/2000/svg"><path d="m512 135.421875c0-74.671875-60.828125-135.421875-135.601562-135.421875-41.070313 0-77.9375 18.328125-102.828126 47.21875-5.898437-.507812-11.851562-.769531-17.78125-.769531-110.929687 0-201.167968 90.191406-201.167968 201.0625 0 6.597656.320312 13.226562.957031 19.796875-33.667969 24.660156-55.578125 64.460937-55.578125 109.269531 0 74.671875 60.828125 135.421875 135.609375 135.421875 48.320313 0 90.832031-25.378906 114.851563-63.488281 1.777343.039062 3.558593.066406 5.328124.066406 110.921876 0 201.171876-90.199219 201.171876-201.066406 0-1.0625-.011719-2.132813-.03125-3.203125 33.390624-24.6875 55.070312-64.308594 55.070312-108.886719zm-145.699219 16.859375c-14.628906 0-26.53125-11.902344-26.53125-26.519531v-20.171875c0-12.949219 9.332031-23.761719 21.628907-26.070313v-9.308593c0-8.289063 6.710937-15 15-15 8.28125 0 15 6.710937 15 15v8.847656h6.621093c8.289063 0 15 6.722656 15 15 0 8.292968-6.710937 15-15 15h-28.25v13.222656h16.71875c14.632813 0 26.53125 11.898438 26.53125 26.519531v20.167969c0 12.953125-9.328125 23.761719-21.621093 26.070312v9.3125c0 8.277344-6.71875 15-15 15-8.289063 0-15-6.722656-15-15v-8.863281h-6.628907c-8.289062 0-15-6.707031-15-15 0-8.277343 6.710938-15 15-15h28.25v-13.207031zm-220.601562 211.148438c14.628906 0 26.53125 11.898437 26.53125 26.53125v20.167968c0 12.949219-9.332031 23.761719-21.621094 26.0625v9.308594c0 8.289062-6.71875 15-15 15-8.289063 0-15-6.710938-15-15v-8.851562h-6.628906c-8.289063 0-15-6.71875-15-15 0-8.289063 6.710937-15 15-15h28.25v-13.21875h-16.71875c-14.632813 0-26.53125-11.890626-26.53125-26.519532v-20.171875c0-12.949219 9.328125-23.757812 21.628906-26.066406v-9.3125c0-8.28125 6.710937-15 15-15 8.28125 0 15 6.71875 15 15v8.859375h6.621094c8.289062 0 15 6.710938 15 15 0 8.28125-6.710938 15-15 15h-28.25v13.210938zm118.910156 54.921874c4.28125-13.160156 6.601563-27.203124 6.601563-41.773437 0-74.679687-60.832032-135.429687-135.601563-135.429687-18.007813 0-35.21875 3.53125-50.949219 9.921874-.03125-1.179687-.039062-2.371093-.039062-3.558593 0-93.839844 76-170.273438 169.707031-171.0625-8.667969 17.839843-13.539063 37.851562-13.539063 58.972656 0 74.679687 60.832032 135.429687 135.609376 135.429687 17.652343 0 34.53125-3.390624 50.011718-9.550781-6.820312 85.007813-76.089844 152.679688-161.800781 157.050781zm0 0"/></svg>