<svg xmlns="http://www.w3.org/2000/svg" viewBox="0 0 26 26" width="104" height="104"><path d="M4.719.063L.187 20.813h6l1.47-6.875h4.28c4.094 0 7.493-2.524 8.407-6.813C21.383 2.269 17.898.062 14.906.062zM9.78 4.28h2.938c1.465 0 2.46 1.27 2.031 2.844-.367 1.578-1.91 2.844-3.438 2.844H8.5zM22.531 5.5a9.96 9.96 0 0 1-.218 2.031c-.407 1.91-1.227 3.582-2.375 4.907-.485 1.425-1.922 2.53-3.344 2.53h-.063c-1.379.63-2.918.97-4.594.97H9.281l-1.125 5.28-.344 1.595H6.157l-.656 3h5.969l1.469-6.875h4.28c4.095 0 7.52-2.524 8.438-6.813.77-3.606-.965-5.758-3.125-6.625z"/></svg>