<svg xmlns="http://www.w3.org/2000/svg" viewBox="0 0 50 50" width="100" height="100"><path d="M33.539 2.65L16 12.68 8.26 8.25c-.48.49-.92 1.009-1.33 1.539L16 14.99 35.76 3.68c-.72-.39-1.46-.73-2.22-1.03zM38.83 5.62L16 18.679 5.12 12.45c-.34.57-.65 1.162-.93 1.762L16 20.99l24.47-14c-.52-.48-1.07-.932-1.64-1.372zm3.92 3.762L16 24.68 3.02 17.24c-.21.65-.38 1.32-.52 2L16 26.99l27.961-16c-.38-.55-.781-1.09-1.211-1.61zM45.717 14L16 31 2.047 23c-.016.333-.047.663-.047 1 0 12.703 10.297 23 23 23s23-10.297 23-23c0-3.584-.82-6.976-2.283-10z"/></svg>