<svg xmlns="http://www.w3.org/2000/svg" viewBox="0 0 50 50" width="100" height="100"><path d="M42 19h-9V1c0-.385-.221-.735-.567-.902a1.002 1.002 0 0 0-1.059.122c-.143.114-14.325 11.495-18.568 14.707C7.573 18.888 7 20.763 7 23.821V43c0 2.757 2.243 5 5 5h30a1 1 0 0 0 1-1V20a1 1 0 0 0-1-1zm-19.064.271c1.077-1.202 2.651-1.626 3.514-.948.864.679.691 2.204-.386 3.406s-2.65 1.626-3.514.947c-.864-.679-.691-2.203.386-3.405zM14 43l18.534-11.706a1 1 0 0 0 .466-.845V21h5v14.25a1 1 0 0 1-.72.96L14 43z"/></svg>